<svg xmlns="http://www.w3.org/2000/svg" width="375" viewBox="0 0 375 375" height="375" version="1.0"><defs><clipPath id="a"><path d="M 140 108.054688 L 235 108.054688 L 235 199.554688 L 140 199.554688 Z M 140 108.054688"/></clipPath></defs><path fill="#FFF" d="M-37.5 -37.5H412.5V412.5H-37.5z"/><path fill="#FFF" d="M-37.5 -37.5H412.5V412.5H-37.5z"/><path fill="#FFF" d="M-37.5 -37.5H412.5V412.5H-37.5z"/><g clip-path="url(#a)"><path d="M 233.871094 135.984375 L 229.058594 155.144531 C 228.863281 155.917969 228.609375 156.667969 228.289062 157.394531 C 227.96875 158.125 227.589844 158.824219 227.15625 159.488281 C 226.71875 160.15625 226.230469 160.78125 225.691406 161.367188 C 225.152344 161.953125 224.566406 162.492188 223.9375 162.980469 C 223.304688 163.46875 222.640625 163.902344 221.9375 164.28125 C 221.234375 164.660156 220.507812 164.980469 219.75 165.238281 C 218.996094 165.496094 218.222656 165.691406 217.433594 165.824219 C 216.648438 165.953125 215.855469 166.019531 215.054688 166.019531 L 167.171875 166.019531 C 166.398438 166.023438 165.632812 165.960938 164.867188 165.839844 C 164.105469 165.71875 163.355469 165.539062 162.621094 165.296875 C 161.886719 165.054688 161.179688 164.757812 160.492188 164.40625 C 159.804688 164.050781 159.152344 163.644531 158.53125 163.183594 C 157.914062 162.726562 157.332031 162.21875 156.792969 161.667969 C 156.253906 161.117188 155.765625 160.527344 155.320312 159.898438 C 154.875 159.265625 154.488281 158.605469 154.148438 157.914062 C 153.8125 157.21875 153.535156 156.503906 153.3125 155.769531 L 140.753906 114.714844 C 140.660156 114.398438 140.601562 114.078125 140.570312 113.753906 C 140.542969 113.425781 140.546875 113.101562 140.585938 112.773438 C 140.621094 112.449219 140.6875 112.128906 140.789062 111.816406 C 140.886719 111.503906 141.015625 111.207031 141.175781 110.917969 C 141.332031 110.632812 141.519531 110.363281 141.730469 110.113281 C 141.941406 109.863281 142.175781 109.632812 142.433594 109.429688 C 142.691406 109.226562 142.964844 109.046875 143.257812 108.898438 C 143.546875 108.746094 143.851562 108.625 144.167969 108.535156 C 144.484375 108.441406 144.808594 108.382812 145.132812 108.355469 C 145.460938 108.328125 145.789062 108.332031 146.117188 108.367188 C 146.445312 108.402344 146.765625 108.46875 147.078125 108.570312 C 147.390625 108.667969 147.691406 108.796875 147.980469 108.953125 C 148.269531 109.113281 148.539062 109.296875 148.789062 109.507812 C 149.042969 109.71875 149.269531 109.953125 149.476562 110.207031 C 149.683594 110.464844 149.859375 110.734375 150.011719 111.027344 C 150.164062 111.316406 150.285156 111.621094 150.375 111.933594 L 162.550781 153.039062 C 162.707031 153.546875 162.941406 154.019531 163.25 154.449219 C 163.5625 154.882812 163.9375 155.25 164.371094 155.558594 C 164.808594 155.867188 165.28125 156.097656 165.796875 156.246094 C 166.308594 156.398438 166.832031 156.460938 167.363281 156.4375 L 215.488281 156.4375 C 216.039062 156.457031 216.574219 156.378906 217.097656 156.210938 C 217.621094 156.046875 218.101562 155.796875 218.539062 155.464844 C 218.976562 155.132812 219.347656 154.738281 219.648438 154.28125 C 219.953125 153.824219 220.167969 153.328125 220.300781 152.796875 L 225.113281 133.636719 C 225.203125 133.277344 225.25 132.914062 225.253906 132.542969 C 225.257812 132.175781 225.21875 131.808594 225.140625 131.449219 C 225.058594 131.085938 224.9375 130.742188 224.777344 130.40625 C 224.617188 130.074219 224.421875 129.765625 224.1875 129.476562 C 223.953125 129.1875 223.691406 128.933594 223.398438 128.703125 C 223.105469 128.476562 222.789062 128.289062 222.453125 128.132812 C 222.117188 127.976562 221.765625 127.863281 221.402344 127.789062 C 221.039062 127.714844 220.671875 127.683594 220.300781 127.695312 L 169.625 127.695312 C 169.308594 127.695312 168.996094 127.664062 168.6875 127.601562 C 168.378906 127.542969 168.078125 127.449219 167.785156 127.332031 C 167.492188 127.210938 167.214844 127.0625 166.953125 126.886719 C 166.691406 126.710938 166.449219 126.515625 166.226562 126.292969 C 166 126.070312 165.800781 125.828125 165.625 125.566406 C 165.453125 125.304688 165.304688 125.027344 165.183594 124.738281 C 165.0625 124.449219 164.96875 124.148438 164.910156 123.839844 C 164.847656 123.53125 164.816406 123.21875 164.816406 122.90625 C 164.816406 122.589844 164.847656 122.28125 164.910156 121.972656 C 164.96875 121.664062 165.0625 121.363281 165.183594 121.074219 C 165.304688 120.78125 165.453125 120.507812 165.625 120.246094 C 165.800781 119.984375 166 119.742188 166.226562 119.519531 C 166.449219 119.296875 166.691406 119.097656 166.953125 118.921875 C 167.214844 118.75 167.492188 118.601562 167.785156 118.480469 C 168.078125 118.359375 168.378906 118.269531 168.6875 118.207031 C 168.996094 118.144531 169.308594 118.113281 169.625 118.113281 L 219.867188 118.113281 C 220.414062 118.113281 220.960938 118.144531 221.503906 118.207031 C 222.046875 118.269531 222.585938 118.359375 223.117188 118.484375 C 223.652344 118.605469 224.175781 118.757812 224.691406 118.941406 C 225.207031 119.121094 225.710938 119.332031 226.199219 119.570312 C 226.691406 119.808594 227.167969 120.074219 227.628906 120.367188 C 228.089844 120.660156 228.535156 120.980469 228.960938 121.320312 C 229.382812 121.664062 229.789062 122.03125 230.171875 122.417969 C 230.554688 122.808594 230.914062 123.21875 231.25 123.644531 C 231.585938 124.074219 231.898438 124.523438 232.183594 124.988281 C 232.46875 125.453125 232.726562 125.929688 232.957031 126.425781 C 233.1875 126.917969 233.390625 127.421875 233.5625 127.941406 C 233.738281 128.457031 233.878906 128.980469 233.992188 129.511719 C 234.105469 130.046875 234.1875 130.582031 234.238281 131.125 C 234.292969 131.667969 234.3125 132.210938 234.300781 132.753906 C 234.292969 133.300781 234.25 133.84375 234.179688 134.382812 C 234.105469 134.921875 234.003906 135.457031 233.871094 135.984375 Z M 184.0625 185.183594 C 184.0625 186.125 183.972656 187.0625 183.785156 187.988281 C 183.601562 188.910156 183.328125 189.8125 182.964844 190.683594 C 182.601562 191.554688 182.15625 192.382812 181.628906 193.167969 C 181.101562 193.953125 180.503906 194.679688 179.835938 195.34375 C 179.164062 196.011719 178.433594 196.609375 177.648438 197.132812 C 176.859375 197.65625 176.027344 198.097656 175.152344 198.460938 C 174.273438 198.820312 173.371094 199.09375 172.441406 199.277344 C 171.511719 199.460938 170.574219 199.554688 169.625 199.554688 C 168.679688 199.554688 167.738281 199.460938 166.808594 199.277344 C 165.878906 199.09375 164.976562 198.820312 164.101562 198.460938 C 163.226562 198.097656 162.394531 197.65625 161.605469 197.132812 C 160.816406 196.609375 160.085938 196.011719 159.417969 195.34375 C 158.746094 194.679688 158.148438 193.953125 157.621094 193.167969 C 157.09375 192.382812 156.652344 191.554688 156.289062 190.683594 C 155.925781 189.8125 155.652344 188.910156 155.464844 187.988281 C 155.28125 187.0625 155.1875 186.125 155.1875 185.183594 C 155.1875 184.238281 155.28125 183.304688 155.464844 182.378906 C 155.652344 181.453125 155.925781 180.554688 156.289062 179.683594 C 156.652344 178.8125 157.09375 177.984375 157.621094 177.199219 C 158.148438 176.414062 158.746094 175.6875 159.417969 175.019531 C 160.085938 174.351562 160.816406 173.757812 161.605469 173.234375 C 162.394531 172.707031 163.226562 172.265625 164.101562 171.90625 C 164.976562 171.542969 165.878906 171.269531 166.808594 171.085938 C 167.738281 170.902344 168.679688 170.8125 169.625 170.8125 C 170.574219 170.8125 171.511719 170.902344 172.441406 171.085938 C 173.371094 171.269531 174.273438 171.542969 175.152344 171.90625 C 176.027344 172.265625 176.859375 172.707031 177.648438 173.234375 C 178.433594 173.757812 179.164062 174.351562 179.835938 175.019531 C 180.503906 175.6875 181.101562 176.414062 181.628906 177.199219 C 182.15625 177.984375 182.601562 178.8125 182.964844 179.683594 C 183.328125 180.554688 183.601562 181.453125 183.785156 182.378906 C 183.972656 183.304688 184.0625 184.238281 184.0625 185.183594 Z M 174.4375 185.183594 C 174.4375 184.867188 174.40625 184.554688 174.347656 184.25 C 174.285156 183.941406 174.191406 183.640625 174.070312 183.347656 C 173.953125 183.058594 173.804688 182.78125 173.628906 182.519531 C 173.453125 182.257812 173.253906 182.019531 173.027344 181.796875 C 172.804688 181.574219 172.5625 181.375 172.300781 181.199219 C 172.035156 181.023438 171.757812 180.878906 171.46875 180.757812 C 171.175781 180.636719 170.875 180.546875 170.566406 180.484375 C 170.253906 180.421875 169.941406 180.390625 169.625 180.390625 C 169.308594 180.390625 168.996094 180.421875 168.6875 180.484375 C 168.378906 180.546875 168.078125 180.636719 167.785156 180.757812 C 167.492188 180.878906 167.214844 181.023438 166.953125 181.199219 C 166.691406 181.375 166.445312 181.574219 166.222656 181.796875 C 166 182.019531 165.800781 182.257812 165.625 182.519531 C 165.449219 182.78125 165.300781 183.058594 165.179688 183.347656 C 165.058594 183.640625 164.96875 183.941406 164.90625 184.25 C 164.84375 184.554688 164.8125 184.867188 164.8125 185.183594 C 164.8125 185.496094 164.84375 185.808594 164.90625 186.117188 C 164.96875 186.425781 165.058594 186.726562 165.179688 187.015625 C 165.300781 187.304688 165.449219 187.582031 165.625 187.84375 C 165.800781 188.105469 166 188.347656 166.222656 188.570312 C 166.445312 188.792969 166.691406 188.992188 166.953125 189.164062 C 167.214844 189.339844 167.492188 189.488281 167.785156 189.609375 C 168.078125 189.730469 168.378906 189.820312 168.6875 189.882812 C 168.996094 189.941406 169.308594 189.972656 169.625 189.972656 C 169.941406 189.972656 170.253906 189.941406 170.566406 189.882812 C 170.875 189.820312 171.175781 189.730469 171.46875 189.609375 C 171.757812 189.488281 172.035156 189.339844 172.300781 189.164062 C 172.5625 188.992188 172.804688 188.792969 173.027344 188.570312 C 173.253906 188.347656 173.453125 188.105469 173.628906 187.84375 C 173.804688 187.582031 173.953125 187.304688 174.070312 187.015625 C 174.191406 186.726562 174.285156 186.425781 174.347656 186.117188 C 174.40625 185.808594 174.4375 185.496094 174.4375 185.183594 Z M 222.5625 185.183594 C 222.5625 186.125 222.46875 187.0625 222.285156 187.988281 C 222.101562 188.910156 221.824219 189.8125 221.464844 190.683594 C 221.101562 191.554688 220.65625 192.382812 220.128906 193.167969 C 219.601562 193.953125 219.003906 194.679688 218.332031 195.34375 C 217.664062 196.011719 216.933594 196.609375 216.144531 197.132812 C 215.359375 197.65625 214.527344 198.097656 213.648438 198.460938 C 212.773438 198.820312 211.871094 199.09375 210.941406 199.277344 C 210.011719 199.460938 209.074219 199.554688 208.125 199.554688 C 207.175781 199.554688 206.238281 199.460938 205.308594 199.277344 C 204.378906 199.09375 203.476562 198.820312 202.601562 198.460938 C 201.722656 198.097656 200.890625 197.65625 200.105469 197.132812 C 199.316406 196.609375 198.585938 196.011719 197.917969 195.34375 C 197.246094 194.679688 196.648438 193.953125 196.121094 193.167969 C 195.59375 192.382812 195.148438 191.554688 194.785156 190.683594 C 194.425781 189.8125 194.148438 188.910156 193.964844 187.988281 C 193.78125 187.0625 193.6875 186.125 193.6875 185.183594 C 193.6875 184.238281 193.78125 183.304688 193.964844 182.378906 C 194.148438 181.453125 194.425781 180.554688 194.785156 179.683594 C 195.148438 178.8125 195.59375 177.984375 196.121094 177.199219 C 196.648438 176.414062 197.246094 175.6875 197.917969 175.019531 C 198.585938 174.351562 199.316406 173.757812 200.105469 173.234375 C 200.890625 172.707031 201.722656 172.265625 202.601562 171.90625 C 203.476562 171.542969 204.378906 171.269531 205.308594 171.085938 C 206.238281 170.902344 207.175781 170.8125 208.125 170.8125 C 209.074219 170.8125 210.011719 170.902344 210.941406 171.085938 C 211.871094 171.269531 212.773438 171.542969 213.648438 171.90625 C 214.527344 172.265625 215.359375 172.707031 216.144531 173.234375 C 216.933594 173.757812 217.664062 174.351562 218.332031 175.019531 C 219.003906 175.6875 219.601562 176.414062 220.128906 177.199219 C 220.65625 177.984375 221.101562 178.8125 221.464844 179.683594 C 221.824219 180.554688 222.101562 181.453125 222.285156 182.378906 C 222.46875 183.304688 222.5625 184.238281 222.5625 185.183594 Z M 212.9375 185.183594 C 212.9375 184.867188 212.90625 184.554688 212.84375 184.25 C 212.785156 183.941406 212.691406 183.640625 212.570312 183.347656 C 212.449219 183.058594 212.300781 182.78125 212.125 182.519531 C 211.949219 182.257812 211.75 182.019531 211.527344 181.796875 C 211.304688 181.574219 211.0625 181.375 210.796875 181.199219 C 210.535156 181.023438 210.257812 180.878906 209.964844 180.757812 C 209.675781 180.636719 209.375 180.546875 209.0625 180.484375 C 208.753906 180.421875 208.441406 180.390625 208.125 180.390625 C 207.808594 180.390625 207.496094 180.421875 207.1875 180.484375 C 206.875 180.546875 206.574219 180.636719 206.285156 180.757812 C 205.992188 180.878906 205.714844 181.023438 205.453125 181.199219 C 205.1875 181.375 204.945312 181.574219 204.722656 181.796875 C 204.5 182.019531 204.300781 182.257812 204.125 182.519531 C 203.949219 182.78125 203.800781 183.058594 203.679688 183.347656 C 203.558594 183.640625 203.464844 183.941406 203.40625 184.25 C 203.34375 184.554688 203.3125 184.867188 203.3125 185.183594 C 203.3125 185.496094 203.34375 185.808594 203.40625 186.117188 C 203.464844 186.425781 203.558594 186.726562 203.679688 187.015625 C 203.800781 187.304688 203.949219 187.582031 204.125 187.84375 C 204.300781 188.105469 204.5 188.347656 204.722656 188.570312 C 204.945312 188.792969 205.1875 188.992188 205.453125 189.164062 C 205.714844 189.339844 205.992188 189.488281 206.285156 189.609375 C 206.574219 189.730469 206.875 189.820312 207.1875 189.882812 C 207.496094 189.941406 207.808594 189.972656 208.125 189.972656 C 208.441406 189.972656 208.753906 189.941406 209.0625 189.882812 C 209.375 189.820312 209.675781 189.730469 209.964844 189.609375 C 210.257812 189.488281 210.535156 189.339844 210.796875 189.164062 C 211.0625 188.992188 211.304688 188.792969 211.527344 188.570312 C 211.75 188.347656 211.949219 188.105469 212.125 187.84375 C 212.300781 187.582031 212.449219 187.304688 212.570312 187.015625 C 212.691406 186.726562 212.785156 186.425781 212.84375 186.117188 C 212.90625 185.808594 212.9375 185.496094 212.9375 185.183594 Z M 208.125 146.859375 C 208.441406 146.859375 208.753906 146.828125 209.0625 146.765625 C 209.375 146.703125 209.675781 146.613281 209.964844 146.492188 C 210.257812 146.375 210.535156 146.226562 210.796875 146.050781 C 211.0625 145.875 211.304688 145.675781 211.527344 145.453125 C 211.75 145.234375 211.949219 144.992188 212.125 144.730469 C 212.300781 144.46875 212.449219 144.191406 212.570312 143.902344 C 212.691406 143.609375 212.785156 143.3125 212.84375 143.003906 C 212.90625 142.695312 212.9375 142.382812 212.9375 142.066406 C 212.9375 141.753906 212.90625 141.441406 212.84375 141.132812 C 212.785156 140.824219 212.691406 140.523438 212.570312 140.234375 C 212.449219 139.945312 212.300781 139.667969 212.125 139.40625 C 211.949219 139.144531 211.75 138.902344 211.527344 138.679688 C 211.304688 138.457031 211.0625 138.257812 210.796875 138.085938 C 210.535156 137.910156 210.257812 137.761719 209.964844 137.640625 C 209.675781 137.519531 209.375 137.429688 209.0625 137.367188 C 208.753906 137.308594 208.441406 137.277344 208.125 137.277344 L 174.4375 137.277344 C 174.121094 137.277344 173.808594 137.308594 173.5 137.367188 C 173.191406 137.429688 172.890625 137.519531 172.597656 137.640625 C 172.304688 137.761719 172.027344 137.910156 171.765625 138.085938 C 171.503906 138.257812 171.257812 138.457031 171.035156 138.679688 C 170.8125 138.902344 170.613281 139.144531 170.4375 139.40625 C 170.261719 139.667969 170.113281 139.945312 169.992188 140.234375 C 169.871094 140.523438 169.78125 140.824219 169.71875 141.132812 C 169.65625 141.441406 169.625 141.753906 169.625 142.066406 C 169.625 142.382812 169.65625 142.695312 169.71875 143.003906 C 169.78125 143.3125 169.871094 143.609375 169.992188 143.902344 C 170.113281 144.191406 170.261719 144.46875 170.4375 144.730469 C 170.613281 144.992188 170.8125 145.234375 171.035156 145.453125 C 171.257812 145.675781 171.503906 145.875 171.765625 146.050781 C 172.027344 146.226562 172.304688 146.375 172.597656 146.492188 C 172.890625 146.613281 173.191406 146.703125 173.5 146.765625 C 173.808594 146.828125 174.121094 146.859375 174.4375 146.859375 Z M 208.125 146.859375"/></g></svg>